# xmcd
#
# Track frame offsets:
#	150
#	21040
#	43272
#	61532
#	84835
#	101415
#	118712
#	149925
#	168487
#	182977
#	208557
#	227372
#	250722
#	267627
#
# Disc length: 3903 seconds
#
# Revision: 1
# Processed by: cddbd v1.4PL0 Copyright (c) Steve Scherf et al.
# Submitted via: audiograbber 1.81.03
#
DISCID=bf0f3d0e
DTITLE=Little Arthur Duncan - Singin' With The Sun
DYEAR=1999
DGENRE=Blues
TTITLE0=Pretty Thing
TTITLE1=Knockin' On Your Door
TTITLE2=No Place To Go
TTITLE3=Sugar Bee
TTITLE4=Mattie Mae
TTITLE5=Itchin' Back
TTITLE6=Singin' With The Sun
TTITLE7=Tribute To Jimmy Reed
TTITLE8=Bad Reputation
TTITLE9=Trackmarks
TTITLE10=Leaving Mississippi
TTITLE11=Blues After Hours
TTITLE12=My Baby Left Me Out On The Road
TTITLE13=Singin' With The Sun
EXTD=
EXTT0=
EXTT1=
EXTT2=
EXTT3=
EXTT4=
EXTT5=
EXTT6=
EXTT7=
EXTT8=
EXTT9=
EXTT10=
EXTT11=
EXTT12=
EXTT13=
PLAYORDER=
